<svg xmlns="http://www.w3.org/2000/svg" width="720" height="280" viewBox="0 0 720 280" role="img" aria-labelledby="title desc">
  <title id="title">Three map symbols</title><desc id="desc">A green tree symbol means park, a double line over blue water means bridge, and a small building with a flag means school.</desc>
  <rect width="720" height="280" fill="#fff"/><g transform="translate(95 50)"><circle cx="70" cy="65" r="48" fill="#68a84f"/><rect x="60" y="105" width="20" height="75" fill="#8b5a2b"/><text x="70" y="220" text-anchor="middle" font-family="Arial" font-size="24">Park</text></g><g transform="translate(290 55)"><path d="M0 90h145" stroke="#5ba6cf" stroke-width="50"/><path d="M10 65h125M10 115h125" stroke="#555" stroke-width="9"/><path d="M25 65v50M120 65v50" stroke="#555" stroke-width="6"/><text x="72" y="215" text-anchor="middle" font-family="Arial" font-size="24">Bridge</text></g><g transform="translate(535 45)"><path d="M15 180V70h130v110M0 70l80-55 80 55" fill="#f3d58b" stroke="#805f26" stroke-width="6"/><rect x="63" y="125" width="34" height="55" fill="#fff" stroke="#805f26" stroke-width="5"/><path d="M115 55V10M115 10h48l-18 18 18 18h-48" fill="#d14b45" stroke="#805f26" stroke-width="4"/><text x="80" y="225" text-anchor="middle" font-family="Arial" font-size="24">School</text></g>
</svg>
